<svg xmlns="http://www.w3.org/2000/svg" width="180" height="36" viewBox="0 0 180 36"><defs><style>.a{fill:#0a5eb2;}.b{fill:#00b2ba;}</style></defs><g transform="translate(-23 -28.5)"><g transform="translate(23 28.5)"><path class="a" d="M123.553,44.272l-1.472-3.328,0,0-5.166-11.676a1.284,1.284,0,0,0-2.347,0l-6.641,15.007a1.283,1.283,0,1,0,2.347,1.039l1.144-2.584h8.647l1.144,2.584a1.283,1.283,0,1,0,2.347-1.039Zm-11-4.112,3.188-7.2,3.187,7.2Z" transform="translate(-56.926 -28.5)"/><path class="a" d="M31.821,46.142a8.821,8.821,0,1,1,5.631-15.611,1.283,1.283,0,1,1-1.639,1.975,6.254,6.254,0,1,0,0,9.63,1.283,1.283,0,1,1,1.639,1.975A8.831,8.831,0,0,1,31.821,46.142Z" transform="translate(-23 -28.5)"/><path class="a" d="M91.568,43.508H84.443V38.6H90.5a1.283,1.283,0,1,0,0-2.567H84.443v-4.97h7.126a1.283,1.283,0,0,0,0-2.567H83.159a1.284,1.284,0,0,0-1.283,1.283V44.792a1.284,1.284,0,0,0,1.283,1.283h8.409a1.283,1.283,0,1,0,0-2.567Z" transform="translate(-46.55 -28.5)"/><path class="a" d="M65.584,46.075H58.225a1.284,1.284,0,0,1-1.283-1.283V29.784a1.283,1.283,0,1,1,2.567,0V43.508h6.076a1.283,1.283,0,0,1,0,2.567Z" transform="translate(-36.577 -28.5)"/><path class="a" d="M175.549,35.005a1.285,1.285,0,1,0-.656,1.691A1.283,1.283,0,0,0,175.549,35.005Z" transform="translate(-83.037 -30.796)"/><path class="a" d="M178.077,40.744a1.284,1.284,0,1,0-.657,1.691A1.283,1.283,0,0,0,178.077,40.744Z" transform="translate(-84.048 -33.091)"/><path class="a" d="M172.221,31.012a1.143,1.143,0,0,0,.118-.043,1.159,1.159,0,0,0,.114-.053c.037-.02.073-.041.108-.064s.069-.049.1-.075.064-.055.094-.085.058-.062.085-.094.052-.067.074-.1a1.208,1.208,0,0,0,.119-.221c.016-.038.03-.079.043-.118s.022-.082.031-.122.014-.083.019-.125.007-.085.007-.126,0-.085-.007-.127-.011-.083-.019-.125-.019-.082-.031-.122-.027-.08-.043-.118-.034-.076-.053-.113a1.141,1.141,0,0,0-.065-.107c-.023-.035-.049-.069-.074-.1a1.26,1.26,0,0,0-.085-.094c-.03-.03-.061-.058-.094-.085s-.067-.051-.1-.074a1.224,1.224,0,0,0-.108-.064,1.159,1.159,0,0,0-.114-.053,1.015,1.015,0,0,0-.118-.043,1.256,1.256,0,0,0-.122-.031c-.041-.008-.083-.015-.124-.019a1.366,1.366,0,0,0-.253,0c-.041,0-.083.011-.125.019s-.081.018-.122.031a1.068,1.068,0,0,0-.118.043,1.216,1.216,0,0,0-.113.053,1.13,1.13,0,0,0-.107.064c-.035.023-.069.049-.1.074s-.064.055-.094.085-.058.061-.085.094a1.285,1.285,0,0,0-.139.209q-.03.056-.054.113c-.016.038-.03.079-.042.118a1.133,1.133,0,0,0-.031.122,1.1,1.1,0,0,0-.018.125,1.21,1.21,0,0,0,0,.253,1.076,1.076,0,0,0,.018.125,1.133,1.133,0,0,0,.031.122c.012.04.026.08.042.118a1.232,1.232,0,0,0,.054.113,1.214,1.214,0,0,0,.064.108,1.233,1.233,0,0,0,.075.1c.027.032.055.064.085.094s.061.058.094.085.067.051.1.075.07.044.107.064a1.4,1.4,0,0,0,.232.1c.041.012.082.022.122.03s.083.015.125.019.084.007.126.007.085,0,.127-.007.083-.011.124-.019A1.253,1.253,0,0,0,172.221,31.012Z" transform="translate(-82.026 -28.5)"/><path class="a" d="M198.791,28.609a1.284,1.284,0,0,0-1.692.658l-5.35,12.145-3.993-10.454a1.283,1.283,0,0,0-1.2-.825h0a1.284,1.284,0,0,0-1.2.828L181.4,41.411l-.751-1.694c-.011-.032-.022-.064-.035-.1a1.216,1.216,0,0,0-.053-.113c-.02-.037-.041-.073-.064-.109s-.048-.069-.074-.1a1.16,1.16,0,0,0-.086-.094,1.145,1.145,0,0,0-.094-.085,1.123,1.123,0,0,0-.1-.075c-.035-.023-.071-.044-.108-.064s-.076-.038-.113-.054-.079-.03-.118-.042-.082-.023-.122-.031a1.252,1.252,0,0,0-.125-.019,1.366,1.366,0,0,0-.253,0,1.227,1.227,0,0,0-.125.019l-.029.007h0c-.031.007-.061.014-.091.023l-.017.006-.056.02-.044.016-.014.007-.022.009a1.283,1.283,0,0,0-.653,1.693l2.071,4.67a1.283,1.283,0,0,0,2.374-.065l3.874-10.218,3.9,10.221a1.283,1.283,0,0,0,1.166.825h.032a1.283,1.283,0,0,0,1.174-.766l6.608-15A1.283,1.283,0,0,0,198.791,28.609Z" transform="translate(-85.054 -28.5)"/><path class="a" d="M230.389,44.272l-1.472-3.328,0,0-5.167-11.676a1.284,1.284,0,0,0-2.347,0l-6.641,15.007a1.283,1.283,0,1,0,2.347,1.039l1.144-2.584H226.9l1.144,2.584a1.283,1.283,0,1,0,2.347-1.039Zm-11-4.112,3.188-7.2,3.187,7.2Z" transform="translate(-99.66 -28.5)"/><path class="a" d="M254.414,28.5h-10.7a1.283,1.283,0,1,0,0,2.567h4.066V44.792a1.283,1.283,0,0,0,2.567,0V31.068h4.066a1.283,1.283,0,0,0,0-2.567Z" transform="translate(-110.773 -28.5)"/><path class="a" d="M281.705,43.508H274.58V38.6h6.062a1.283,1.283,0,1,0,0-2.567H274.58v-4.97h7.126a1.283,1.283,0,1,0,0-2.567H273.3a1.283,1.283,0,0,0-1.283,1.283V44.791a1.284,1.284,0,0,0,1.283,1.283h8.409a1.283,1.283,0,1,0,0-2.567Z" transform="translate(-122.605 -28.5)"/><path class="a" d="M156.486,44.049,152.8,38.856A5.4,5.4,0,0,0,150.642,28.5h-6.516a1.283,1.283,0,0,0-1.283,1.283V44.792a1.283,1.283,0,1,0,2.567,0V39.308h4.569l4.413,6.226a1.283,1.283,0,1,0,2.094-1.484ZM145.41,31.068h5.233a2.837,2.837,0,0,1,0,5.674H145.41Z" transform="translate(-70.937 -28.5)"/><path class="a" d="M313.511,44.049l-3.682-5.194A5.4,5.4,0,0,0,307.667,28.5h-6.516a1.283,1.283,0,0,0-1.283,1.283V44.792a1.283,1.283,0,0,0,2.567,0V39.308H307l4.413,6.226a1.283,1.283,0,1,0,2.094-1.484ZM302.435,31.068h5.233a2.837,2.837,0,0,1,0,5.674h-5.233Z" transform="translate(-133.747 -28.5)"/></g><g transform="translate(52.091 55.608)"><path class="b" d="M266.725,77.356l-.23-.048c-1.048-.223-1.475-.795-1.43-1.232.048-.454.617-.942,1.754-.942a2.081,2.081,0,0,1,1.626.657l-.007-.009,0,0a.722.722,0,1,0,1.164-.856l0,0a3.513,3.513,0,0,0-2.791-1.241c-2.048,0-3.083,1.127-3.2,2.245-.116,1.1.635,2.395,2.573,2.806l.236.049c1.592.331,2.157.584,2.157,1.343,0,.9-1.144.994-1.635.994a2.621,2.621,0,0,1-2.281-.9l.007.012,0,0a.723.723,0,1,0-1.244.735l0,0a2.925,2.925,0,0,0,.853.853,4.642,4.642,0,0,0,2.672.751c1.877,0,3.089-.961,3.089-2.449C270.04,78.046,268.045,77.631,266.725,77.356Z" transform="translate(-148.223 -73.68)"/><path class="b" d="M178.808,73.9a.728.728,0,0,0-.987.289l-2.012,3.675L173.8,74.189a.727.727,0,1,0-1.276.7l2.561,4.677v2.254a.727.727,0,0,0,1.454,0V79.564l2.56-4.677A.727.727,0,0,0,178.808,73.9Z" transform="translate(-111.864 -73.732)"/><path class="b" d="M79.321,81.524l-.713-1.612,0,0L76.1,74.244a.727.727,0,0,0-1.33,0l-3.221,7.28a.727.727,0,0,0,1.33.589l.527-1.192h4.058l.527,1.192a.727.727,0,0,0,1.33-.589Zm-5.272-2.057,1.386-3.131,1.385,3.131Z" transform="translate(-71.485 -73.732)"/><path class="b" d="M132.193,81.524l-.713-1.612,0,0-2.506-5.663a.727.727,0,0,0-1.33,0l-3.221,7.28a.727.727,0,0,0,1.33.589l.527-1.192h4.058l.527,1.192a.727.727,0,0,0,1.33-.589Zm-5.272-2.057,1.386-3.131,1.385,3.131Z" transform="translate(-92.634 -73.732)"/><path class="b" d="M201.936,73.811h-5.189a.727.727,0,0,0,0,1.454h1.868v6.553a.727.727,0,1,0,1.454,0V75.265h1.867a.727.727,0,0,0,0-1.454Z" transform="translate(-121.299 -73.732)"/><path class="b" d="M221.571,82.546a.727.727,0,0,1-.727-.727v-7.28a.727.727,0,1,1,1.454,0v7.28A.727.727,0,0,1,221.571,82.546Z" transform="translate(-131.229 -73.732)"/><path class="b" d="M241.549,82.551a4.384,4.384,0,1,1,2.8-7.758.727.727,0,1,1-.929,1.119,2.929,2.929,0,1,0,0,4.511.727.727,0,1,1,.929,1.119A4.389,4.389,0,0,1,241.549,82.551Z" transform="translate(-137.758 -73.722)"/><path class="b" d="M155.756,82.546h-3.569a.727.727,0,0,1-.727-.727v-7.28a.727.727,0,1,1,1.454,0v6.553h2.842a.727.727,0,1,1,0,1.454Z" transform="translate(-103.475 -73.732)"/><path class="b" d="M104.959,82.546a.728.728,0,0,1-.575-.281l-4.344-5.6v5.156a.727.727,0,0,1-1.454,0v-7.28a.727.727,0,0,1,1.3-.445l4.344,5.6V74.538a.727.727,0,1,1,1.454,0v7.28a.727.727,0,0,1-.727.727Z" transform="translate(-82.326 -73.732)"/></g></g></svg>